<svg t="1669808865535" class="icon" viewBox="0 0 1024 1024" version="1.1" xmlns="http://www.w3.org/2000/svg" p-id="1920" width="200" height="200"><path d="M138.24 168.96v491.52c0 16.896 13.824 30.72 30.72 30.72h686.08c16.896 0 30.72-13.824 30.72-30.72V168.96c0-16.896-13.824-30.72-30.72-30.72H168.96c-16.896 0-30.72 13.824-30.72 30.72z m691.2 481.28H194.56c-8.704 0-15.36-6.656-15.36-15.36V194.56c0-8.704 6.656-15.36 15.36-15.36h634.88c8.704 0 15.36 6.656 15.36 15.36v440.32c0 8.704-6.656 15.36-15.36 15.36z" p-id="1921"></path><path d="M491.52 675.84h40.96v174.08h-40.96z" p-id="1922"></path><path d="M296.96 865.28c0-11.264 9.216-20.48 20.48-20.48h389.12c11.264 0 20.48 9.216 20.48 20.48s-9.216 20.48-20.48 20.48H317.44c-11.264 0-20.48-9.216-20.48-20.48zM266.24 271.36c0-11.264 9.216-20.48 20.48-20.48h450.56c11.264 0 20.48 9.216 20.48 20.48s-9.216 20.48-20.48 20.48H286.72c-11.264 0-20.48-9.216-20.48-20.48zM266.24 401.92c0-11.264 9.216-20.48 20.48-20.48h450.56c11.264 0 20.48 9.216 20.48 20.48s-9.216 20.48-20.48 20.48H286.72c-11.264 0-20.48-9.216-20.48-20.48zM266.24 532.48c0-11.264 9.216-20.48 20.48-20.48h261.12c11.264 0 20.48 9.216 20.48 20.48s-9.216 20.48-20.48 20.48H286.72c-11.264 0-20.48-9.216-20.48-20.48z" p-id="1923"></path></svg>